<?xml version="1.0" encoding="utf-8"?>
<!-- Generator: Adobe Illustrator 25.2.0, SVG Export Plug-In . SVG Version: 6.00 Build 0)  -->
<svg version="1.1" id="katman_1" xmlns="http://www.w3.org/2000/svg" xmlns:xlink="http://www.w3.org/1999/xlink" x="0px" y="0px"
	 viewBox="0 0 58.5 17.2" style="enable-background:new 0 0 58.5 17.2;" xml:space="preserve">
<g>
	<path d="M6,1.7c1.7,0,2.9,0.3,3.9,0.6v1.8H9.8c0,0-0.8-2.3-3.8-2.3c-2.6,0-4,1.6-4,3.1c0,3.8,8.7,2.4,8.7,7.2c0,1.9-2,3.8-5.1,3.8
		c-1.8,0-3.4-0.9-4.4-1.7v-1.8h0.1c0,0.1,1.8,3.3,5,3.3c2,0,3.6-1.5,3.6-3c0-4.1-8.8-3-8.8-7.5C1.1,3.4,2.8,1.7,6,1.7z"/>
	<path d="M17.4,7.2c0-0.3-0.2-0.4-0.3-0.4c-0.7,0-1.1,1.4-1.9,1.4c-0.4,0-0.5-0.4-0.3-0.7c0.8-2.2,1.3-3.6,2.2-5.9h0.2l4.4,11.6
		c0.6,1.5,1,2.3,1.9,2.3v0.2h-4.5v-0.1c1.9,0,1.9-1.1,1.3-2.5l-1.7-4.5c0.1,0.4,0.1,1,0.1,1.6c0,3.3-1.6,5.8-4.3,5.8
		c-1.6,0-2.5-1.2-2.5-2.7C12,9.9,17.4,8.6,17.4,7.2z M15.3,15.3c2.3,0,3.4-2.8,3.4-5.1c0-1,0-1.8-0.3-2.6l-1.7-4.4l-1.6,4.2
		C14.9,7.9,15,8,15.3,8c0.6,0,1.1-1.4,1.9-1.4c0.3,0,0.5,0.2,0.5,0.5c0,1.8-4.5,2.4-4.5,5.8C13.1,14.3,13.9,15.3,15.3,15.3z"/>
	<path d="M24,15.6c0.8,0,1.5-1.1,2.8-3.2c0.8-1.3,1.6-2.8,2.1-3.5V8.8c-0.4-0.7-1.2-2-2-3.4c-1.3-2.2-2.1-3.3-2.8-3.3V2h4.1v0.1
		h-0.3c-0.4,0-0.7,0.2-0.7,0.7c0,0.8,1.9,3.8,3,5.8c2-3.5,2.6-4.9,2.7-5.7c0-0.5-0.4-0.8-0.8-0.8h-0.4V2h3.4v0.1
		c-0.8,0-1.5,1.1-2.8,3.2c-0.8,1.3-1.6,2.8-2.1,3.5v0.1c0.4,0.7,1.2,2,2,3.4c1.3,2.2,2.1,3.3,2.8,3.3v0.1h-4.1v-0.1h0.3
		c0.4,0,0.7-0.2,0.7-0.7c0-0.8-1.9-3.8-3-5.8c-2,3.5-2.7,4.9-2.7,5.8c0,0.5,0.4,0.8,0.8,0.8h0.4l0,0L24,15.6
		C24,15.7,24,15.6,24,15.6z"/>
	<path d="M35.8,2h9.8v1.9h-0.1V3.8c0-0.9-1.8-1.7-5-1.7h-2.3V8c0.4-0.4,1-0.6,1.6-0.6c1.4,0,2.1,0.9,3.3,0.9c0.5,0,1-0.3,1-0.8h0.2
		c0,0.8-0.7,1.5-1.8,1.5c-1.7,0-2.4-1.2-3.4-1.2c-0.4,0-0.7,0.2-1,0.5v7.3h1.8c1.3,0,5.5-0.2,5.5-2.1h0.1v2.2h-9.8v-0.1
		c1.2,0,1.3-1,1.3-3.7V5.8c0-2.7-0.1-3.7-1.3-3.7V2H35.8z"/>
	<path d="M48.8,2l7.7,11.7v-6c0-4-1.1-5.6-2.3-5.6V2h3.7v0.1c-1.2,0-1.3,1-1.3,3.7V16h-0.1L47.8,2.7v7.2c0,4,1.1,5.6,2.3,5.6v0.2
		h-3.7v-0.1c1.2,0,1.3-1,1.3-3.7V5.8c0-2.7-0.1-3.7-1.3-3.7V2H48.8z"/>
</g>
</svg>
